<svg version="1" xmlns="http://www.w3.org/2000/svg" width="1333.333" height="1333.333" viewBox="0 0 1000.000000 1000.000000"><path d="M395.9 1.2c-.1 1.7-.1 74 0 75 .1.5 21.5.8 47.6.8H491v154l-7.7-6.5c-14.2-12-32.5-23-49.8-30-4.9-2-9.9-4-11-4.5-4.3-1.9-21.6-7.1-33-9.9-22.2-5.5-45.8-9.1-75.5-11.6-17.3-1.4-48.7-1.8-171.5-1.9-76.5-.1-139.8 0-140.8.2-1.6.4-1.7 3.1-1.7 38.7v38.3l31.8.1h34l2.2.1v679H0v77h259v-77l-47.7-.2-47.8-.3v-153c-.1-84.2.1-153.5.3-154.2.3-.9 7.2-1.1 28.5-.9 34.8.4 42.7 1.7 60.7 9.8 15.9 7.2 35.9 26.4 53.7 51.3 14.2 20 47.3 74 61.6 100.5 2.2 4.1 6.8 12.4 10.2 18.5 3.4 6 7.8 13.9 9.7 17.5 3.6 6.5 4.2 7.7 13.8 25 2.9 5.2 6.7 12 8.3 15 1.7 3 6.7 12 11.2 20 28.8 51.2 47.9 87.7 62.4 119.2l4 8.8h152.7v-77H601c-39.3 0-39.5 0-40.9-2.1-1.4-2.3-3.8-6.5-7.9-13.9-1.4-2.5-5.3-9.5-8.7-15.5-3.4-6.1-7.5-13.3-9-16-5.8-10.3-15.8-28.2-18.8-33.5-1.6-3-3.4-6.1-4-6.8-.5-.7-.8-1.4-.6-1.7.3-.2 49-.6 108.4-.8 59.4-.2 109.6-.7 111.5-1 1.9-.3 8-.8 13.4-1.2 5.5-.4 10.9-.8 12-1 2-.3 5-.7 15.6-2 5.5-.7 9-1.3 15.5-2.5 2.8-.5 6.6-1.2 8.5-1.5 7.5-1.2 36-8.5 45-11.5 39.2-13.1 69.4-30.8 94.1-55.2 14.1-13.9 18.9-19.8 30.6-37.3 9.4-13.9 24.4-49.7 26.8-63.7.3-1.8 1.2-6 2-9.3.7-3.3 1.9-9.8 2.5-14.4.6-4.5 1.4-9.9 1.6-12 1-6.7 1.1-49.6.3-56.6-1.7-13.4-4.1-27-6-34.5-11-42.3-33.2-78.9-61.9-102.2-22.3-18.2-49.2-31.7-81.2-40.7-8.3-2.4-13.4-4.3-13.6-5.2-.1-.9 3.2-2.7 10-5.3 20-7.5 43.5-20.5 57.3-31.5 35.5-28.5 57.8-73.6 62.2-125.6 1.3-16.1.7-40.9-1.3-54.3-5.9-39.5-21.2-71.1-46.9-96.7C881.2 31.1 826.9 10 750 2.4c-3.6-.3-8.3-.8-10.5-1.1-2.2-.3-80.4-.7-173.7-1C427.2 0 396 .1 395.9 1.2zM722 78.4c2.5.3 7 .8 10 1.1 3 .3 6.6.7 8 .9 1.4.3 5.9 1 10 1.6 18.6 2.9 39.6 9 53.6 15.5 37.4 17.2 57.2 47.5 61.9 94.5.8 8.2.9 29 .1 37.2-1.4 14.1-2.8 20.8-7.8 37.8-1.7 5.7-8.8 20-13.4 27-19.1 28.8-53.2 48.2-98.4 55.9-23.8 4.1-33.3 4.5-102 4.6h-57.5V217c-.1-75.6.1-138.1.3-138.8.4-1.1 11.9-1.3 65.6-.9 35.8.3 67.1.7 69.6 1.1zm-448.3 166c9.2.4 18.3.8 20.2 1.1 1.9.2 6.6.7 10.5 1 3.9.3 8.2.8 9.6 1 1.4.3 3.9.7 5.5.9 29.3 3.7 58.6 13.5 78 26.2 25.9 17 42.4 47.1 46.3 84.8.9 9.3.9 42.4-.1 50.1-5.5 42.2-23.1 72.9-53.3 93.1-13.8 9.2-38.1 19.6-55.9 24-1.6.4-3.4.8-4 1-7.6 2.2-29.3 5.7-42 6.9-3.8.4-8.1.9-9.5 1.2-1.4.3-27.8.8-58.7 1-47 .4-56.3.3-56.4-.8-.1-.8-.2-66.7-.3-146.4l-.1-145 6.5-.5c8.7-.7 82.5-.4 103.7.4zm443.9 188.1c9.8.3 19.3.8 20.9 1 1.7.2 5.7.7 9 1 12.1 1.3 27.7 4 38 6.6 51.2 12.8 83.7 38 100.1 77.5 3.6 8.8 7.8 22.6 8.8 28.9.4 2.2.9 5.3 1.2 7 2.2 11.7 2.8 54 .9 66-3.1 20.8-5.1 29.6-9.7 42-15.1 41.2-45 66.7-95.3 81-8.6 2.4-16.6 4.4-20.2 5.1-1.3.2-3.5.6-5 .9-1.6.3-4.4.8-6.3 1-1.9.3-4.4.7-5.5 1-1.1.2-4.7.6-8 1-3.3.3-6.9.8-8 1-6.8 1.3-35.7 2-90 2h-61.9l-.1-161c-.1-88.6 0-161.5.2-162 .4-1.1 100.9-1.2 130.9 0zM491 641.9v113.9l-11.2.1c-6.2 0-11.8-.3-12.4-.7-.9-.6-2.6-3.5-10.2-17.2-2.6-4.7-9-16-12.5-22-1.1-1.9-3-5.4-4.3-7.7-3.7-6.4-18.2-29.6-20.7-32.8-.4-.6-4.8-6.6-9.8-13.4-9-12.3-24.2-28.5-34.9-37.1-3-2.5-6.6-5.5-7.9-6.7-1.4-1.2-6.9-5.1-12.3-8.5-11.6-7.5-12.3-9.2-4-10.8 16.6-3.2 45.5-12.3 64-20.1 26.5-11.3 54.8-29.6 70.7-45.8 2.7-2.8 5.1-5.1 5.2-5.1.2 0 .3 51.3.3 113.9z"/></svg>